# Blender 5.0.1
# www.blender.org
mtllib boat.mtl
o coque
v -4.577940 2.362680 1.631644
v -4.138176 2.362680 -0.319409
v 4.894651 2.362681 1.499959
v 3.821465 2.362681 -0.187724
v -4.577940 -2.362681 1.631644
v -4.138176 -2.362681 -0.319409
v 4.894651 -2.362680 1.499958
v 3.821465 -2.362680 -0.187724
v -2.831675 -1.415054 -1.123971
v 2.831675 -1.415054 -1.123971
v -2.831675 1.415054 -1.123971
v 2.831675 1.415054 -1.123971
vn 0.0139 -0.0000 0.9999
vn 0.8438 -0.0000 -0.5366
vn -0.0000 -1.0000 -0.0000
vn -0.0000 -0.7028 -0.7114
vn -0.0000 1.0000 -0.0000
vn -0.9755 -0.0000 -0.2199
vn -0.0000 -0.0000 -1.0000
vn 0.0125 0.6571 -0.7537
vn -0.5244 -0.0000 -0.8515
vn 0.6872 -0.0000 -0.7265
vn 0.0125 -0.6571 -0.7537
vn -0.0000 0.7028 -0.7114
s 0
usemtl Material
f 5//1 3//1 1//1
f 3//2 8//2 4//2
f 8//3 5//3 6//3
f 8//4 9//4 10//4
f 1//5 4//5 2//5
f 5//6 2//6 6//6
f 11//7 10//7 9//7
f 4//8 11//8 2//8
f 2//9 9//9 6//9
f 8//10 12//10 4//10
f 5//1 7//1 3//1
f 3//2 7//2 8//2
f 8//3 7//3 5//3
f 8//11 6//11 9//11
f 1//5 3//5 4//5
f 5//6 1//6 2//6
f 11//7 12//7 10//7
f 4//12 12//12 11//12
f 2//9 11//9 9//9
f 8//10 10//10 12//10
o cabine
v -2.774297 -1.000000 1.493436
v -2.774297 -1.000000 3.493436
v -2.774297 1.000000 1.493436
v -2.774297 1.000000 3.493436
v -0.774297 -1.000000 1.493436
v -0.774297 -1.000000 3.493436
v -0.774297 1.000000 1.493436
v -0.774297 1.000000 3.493436
vn -1.0000 -0.0000 -0.0000
vn -0.0000 1.0000 -0.0000
vn 1.0000 -0.0000 -0.0000
vn -0.0000 -1.0000 -0.0000
vn -0.0000 -0.0000 -1.0000
vn -0.0000 -0.0000 1.0000
s 0
usemtl Material.001
f 14//13 15//13 13//13
f 16//14 19//14 15//14
f 20//15 17//15 19//15
f 18//16 13//16 17//16
f 19//17 13//17 15//17
f 16//18 18//18 20//18
f 14//13 16//13 15//13
f 16//14 20//14 19//14
f 20//15 18//15 17//15
f 18//16 14//16 13//16
f 19//17 17//17 13//17
f 16//18 14//18 18//18
