# Blender 5.0.1
# www.blender.org
mtllib infantery.mtl
o head
v 0.250000 0.250000 1.786463
v 0.250000 0.250000 1.286463
v 0.250000 -0.250000 1.786463
v 0.250000 -0.250000 1.286463
v -0.250000 0.250000 1.786463
v -0.250000 0.250000 1.286463
v -0.250000 -0.250000 1.786463
v -0.250000 -0.250000 1.286463
v -0.286466 0.148325 1.249996
v -0.304784 0.000000 1.231679
v -0.286466 -0.148325 1.249996
v 0.148325 0.286466 1.249996
v 0.000000 0.304784 1.231679
v -0.148325 0.286466 1.249996
v 0.286466 0.286466 1.684788
v 0.304784 0.304784 1.536463
v 0.286466 0.286466 1.388138
v -0.286466 -0.286466 1.388138
v -0.304784 -0.304784 1.536463
v -0.286466 -0.286466 1.684788
v 0.286466 -0.286466 1.684788
v 0.304784 -0.304784 1.536463
v 0.286466 -0.286466 1.388138
v -0.286466 0.286466 1.684788
v -0.304784 0.304784 1.536463
v -0.286466 0.286466 1.388138
v 0.148325 -0.286466 1.822929
v 0.000000 -0.304784 1.841247
v -0.148325 -0.286466 1.822929
v 0.286466 0.148325 1.822929
v 0.304784 0.000000 1.841247
v 0.286466 -0.148325 1.822929
v -0.148325 -0.286466 1.249996
v -0.000000 -0.304784 1.231679
v 0.148325 -0.286466 1.249996
v -0.286466 -0.148325 1.822929
v -0.304784 0.000000 1.841247
v -0.286466 0.148325 1.822929
v -0.148325 0.286466 1.822929
v -0.000000 0.304784 1.841247
v 0.148325 0.286466 1.822929
v 0.286466 -0.148325 1.249996
v 0.304784 0.000000 1.231679
v 0.286466 0.148325 1.249996
v 0.158079 0.158079 1.900958
v 0.000000 0.166570 1.927377
v -0.158079 0.158079 1.900958
v 0.166570 -0.000000 1.927377
v -0.000000 0.000000 1.956216
v -0.166570 0.000000 1.927377
v 0.158079 -0.158079 1.900958
v -0.000000 -0.166570 1.927377
v -0.158079 -0.158079 1.900958
v 0.158079 -0.364495 1.378384
v 0.166570 -0.390914 1.536463
v 0.158079 -0.364495 1.694541
v -0.000000 -0.390914 1.369893
v 0.000000 -0.419753 1.536463
v 0.000000 -0.390914 1.703033
v -0.158079 -0.364495 1.378384
v -0.166570 -0.390914 1.536463
v -0.158079 -0.364495 1.694541
v -0.364495 -0.158079 1.378384
v -0.390914 -0.166570 1.536463
v -0.364495 -0.158079 1.694541
v -0.390914 0.000000 1.369893
v -0.419753 0.000000 1.536463
v -0.390914 0.000000 1.703033
v -0.364495 0.158079 1.378384
v -0.390914 0.166570 1.536463
v -0.364495 0.158079 1.694541
v -0.158079 0.158079 1.171968
v -0.000000 0.166570 1.145548
v 0.158079 0.158079 1.171968
v -0.166570 -0.000000 1.145548
v -0.000000 -0.000000 1.116710
v 0.166570 0.000000 1.145548
v -0.158079 -0.158079 1.171968
v 0.000000 -0.166570 1.145548
v 0.158079 -0.158079 1.171968
v 0.364495 0.158079 1.378384
v 0.390914 0.166570 1.536463
v 0.364495 0.158079 1.694541
v 0.390914 -0.000000 1.369893
v 0.419753 0.000000 1.536463
v 0.390914 0.000000 1.703033
v 0.364495 -0.158079 1.378384
v 0.390914 -0.166570 1.536463
v 0.364495 -0.158079 1.694541
v -0.158079 0.364495 1.378384
v -0.166570 0.390914 1.536463
v -0.158079 0.364495 1.694541
v 0.000000 0.390914 1.369893
v 0.000000 0.419753 1.536463
v -0.000000 0.390914 1.703033
v 0.158079 0.364495 1.378384
v 0.166570 0.390914 1.536463
v 0.158079 0.364495 1.694541
vn 0.1681 0.1713 0.9708
vn -0.1713 0.1681 0.9708
vn 0.1681 -0.1713 0.9708
vn -0.1713 -0.1681 0.9708
vn 0.4896 0.4446 0.7501
vn 0.1678 0.5213 0.8367
vn -0.1677 0.5214 0.8367
vn -0.4446 0.4896 0.7501
vn -0.5213 0.1678 0.8367
vn -0.5213 -0.1678 0.8367
vn -0.4446 -0.4896 0.7501
vn -0.1677 -0.5214 0.8367
vn 0.1678 -0.5213 0.8367
vn 0.4896 -0.4446 0.7501
vn 0.5214 -0.1677 0.8367
vn 0.5214 0.1677 0.8367
vn 0.1713 -0.9708 -0.1681
vn 0.1681 -0.9708 0.1713
vn -0.1713 -0.9708 -0.1681
vn -0.1681 -0.9708 0.1713
vn 0.4446 -0.7501 -0.4896
vn 0.5213 -0.8367 -0.1678
vn 0.5214 -0.8367 0.1677
vn 0.4896 -0.7501 0.4446
vn 0.1678 -0.8367 0.5213
vn -0.1678 -0.8367 0.5213
vn -0.4896 -0.7501 0.4446
vn -0.5214 -0.8367 0.1677
vn -0.5213 -0.8367 -0.1678
vn -0.4446 -0.7501 -0.4896
vn -0.1677 -0.8367 -0.5214
vn 0.1677 -0.8367 -0.5214
vn -0.9708 -0.1713 -0.1681
vn -0.9708 -0.1681 0.1713
vn -0.9708 0.1713 -0.1681
vn -0.9708 0.1681 0.1713
vn -0.7501 -0.4446 -0.4896
vn -0.8367 -0.5213 -0.1678
vn -0.8367 -0.5214 0.1677
vn -0.7501 -0.4896 0.4446
vn -0.8367 -0.1678 0.5213
vn -0.8367 0.1678 0.5213
vn -0.7501 0.4896 0.4446
vn -0.8367 0.5214 0.1677
vn -0.8367 0.5213 -0.1678
vn -0.7501 0.4446 -0.4896
vn -0.8367 0.1677 -0.5214
vn -0.8367 -0.1677 -0.5214
vn -0.1681 0.1713 -0.9708
vn 0.1713 0.1681 -0.9708
vn -0.1681 -0.1713 -0.9708
vn 0.1713 -0.1681 -0.9708
vn -0.4896 0.4446 -0.7501
vn -0.1678 0.5213 -0.8367
vn 0.1677 0.5214 -0.8367
vn 0.4446 0.4896 -0.7501
vn 0.5213 0.1678 -0.8367
vn 0.5213 -0.1678 -0.8367
vn 0.4446 -0.4896 -0.7501
vn 0.1677 -0.5214 -0.8367
vn -0.1678 -0.5213 -0.8367
vn -0.4896 -0.4446 -0.7501
vn -0.5214 -0.1677 -0.8367
vn -0.5214 0.1677 -0.8367
vn 0.9708 0.1713 -0.1681
vn 0.9708 0.1681 0.1713
vn 0.9708 -0.1713 -0.1681
vn 0.9708 -0.1681 0.1713
vn 0.7501 0.4446 -0.4896
vn 0.8367 0.5213 -0.1678
vn 0.8367 0.5214 0.1677
vn 0.7501 0.4896 0.4446
vn 0.8367 0.1678 0.5213
vn 0.8367 -0.1678 0.5213
vn 0.7501 -0.4896 0.4446
vn 0.8367 -0.5214 0.1677
vn 0.8367 -0.5213 -0.1678
vn 0.7501 -0.4446 -0.4896
vn 0.8367 -0.1677 -0.5214
vn 0.8367 0.1677 -0.5214
vn -0.1713 0.9708 -0.1681
vn -0.1681 0.9708 0.1713
vn 0.1713 0.9708 -0.1681
vn 0.1681 0.9708 0.1713
vn -0.4446 0.7501 -0.4896
vn -0.5213 0.8367 -0.1678
vn -0.5214 0.8367 0.1677
vn -0.4896 0.7501 0.4446
vn -0.1678 0.8367 0.5213
vn 0.1678 0.8367 0.5213
vn 0.4896 0.7501 0.4446
vn 0.5214 0.8367 0.1677
vn 0.5213 0.8367 -0.1678
vn 0.4446 0.7501 -0.4896
vn 0.1677 0.8367 -0.5214
vn -0.1677 0.8367 -0.5214
vn 0.1713 0.1681 0.9708
vn -0.1681 0.1713 0.9708
vn 0.1713 -0.1681 0.9708
vn -0.1681 -0.1713 0.9708
vn 0.4446 0.4896 0.7501
vn 0.1677 0.5214 0.8367
vn -0.1678 0.5213 0.8367
vn -0.4896 0.4446 0.7501
vn -0.5214 0.1677 0.8367
vn -0.5214 -0.1677 0.8367
vn -0.4896 -0.4446 0.7501
vn -0.1678 -0.5213 0.8367
vn 0.1677 -0.5214 0.8367
vn 0.4446 -0.4896 0.7501
vn 0.5213 -0.1678 0.8367
vn 0.5213 0.1678 0.8367
vn 0.1681 -0.9708 -0.1713
vn 0.1713 -0.9708 0.1681
vn -0.1681 -0.9708 -0.1713
vn -0.1713 -0.9708 0.1681
vn 0.4896 -0.7501 -0.4446
vn 0.5214 -0.8367 -0.1677
vn 0.5213 -0.8367 0.1678
vn 0.4446 -0.7501 0.4896
vn 0.1677 -0.8367 0.5214
vn -0.1677 -0.8367 0.5214
vn -0.4446 -0.7501 0.4896
vn -0.5213 -0.8367 0.1678
vn -0.5214 -0.8367 -0.1677
vn -0.4896 -0.7501 -0.4446
vn -0.1678 -0.8367 -0.5213
vn 0.1678 -0.8367 -0.5213
vn -0.9708 -0.1681 -0.1713
vn -0.9708 -0.1713 0.1681
vn -0.9708 0.1681 -0.1713
vn -0.9708 0.1713 0.1681
vn -0.7501 -0.4896 -0.4446
vn -0.8367 -0.5214 -0.1677
vn -0.8367 -0.5213 0.1678
vn -0.7501 -0.4446 0.4896
vn -0.8367 -0.1677 0.5214
vn -0.8367 0.1677 0.5214
vn -0.7501 0.4446 0.4896
vn -0.8367 0.5213 0.1678
vn -0.8367 0.5214 -0.1677
vn -0.7501 0.4896 -0.4446
vn -0.8367 0.1678 -0.5213
vn -0.8367 -0.1678 -0.5213
vn -0.1713 0.1681 -0.9708
vn 0.1681 0.1713 -0.9708
vn -0.1713 -0.1681 -0.9708
vn 0.1681 -0.1713 -0.9708
vn -0.4446 0.4896 -0.7501
vn -0.1677 0.5214 -0.8367
vn 0.1678 0.5213 -0.8367
vn 0.4896 0.4446 -0.7501
vn 0.5214 0.1677 -0.8367
vn 0.5214 -0.1677 -0.8367
vn 0.4896 -0.4446 -0.7501
vn 0.1678 -0.5213 -0.8367
vn -0.1677 -0.5214 -0.8367
vn -0.4446 -0.4896 -0.7501
vn -0.5213 -0.1678 -0.8367
vn -0.5213 0.1678 -0.8367
vn 0.9708 0.1681 -0.1713
vn 0.9708 0.1713 0.1681
vn 0.9708 -0.1681 -0.1713
vn 0.9708 -0.1713 0.1681
vn 0.7501 0.4896 -0.4446
vn 0.8367 0.5214 -0.1677
vn 0.8367 0.5213 0.1678
vn 0.7501 0.4446 0.4896
vn 0.8367 0.1677 0.5214
vn 0.8367 -0.1677 0.5214
vn 0.7501 -0.4446 0.4896
vn 0.8367 -0.5213 0.1678
vn 0.8367 -0.5214 -0.1677
vn 0.7501 -0.4896 -0.4446
vn 0.8367 -0.1678 -0.5213
vn 0.8367 0.1678 -0.5213
vn -0.1681 0.9708 -0.1713
vn -0.1713 0.9708 0.1681
vn 0.1681 0.9708 -0.1713
vn 0.1713 0.9708 0.1681
vn -0.4896 0.7501 -0.4446
vn -0.5214 0.8367 -0.1677
vn -0.5213 0.8367 0.1678
vn -0.4446 0.7501 0.4896
vn -0.1677 0.8367 0.5214
vn 0.1677 0.8367 0.5214
vn 0.4446 0.7501 0.4896
vn 0.5213 0.8367 0.1678
vn 0.5214 0.8367 -0.1677
vn 0.4896 0.7501 -0.4446
vn 0.1678 0.8367 -0.5213
vn -0.1678 0.8367 -0.5213
vt 0.687500 0.562500
vt 0.750000 0.625000
vt 0.687500 0.625000
vt 0.812500 0.562500
vt 0.750000 0.562500
vt 0.687500 0.687500
vt 0.812500 0.687500
vt 0.750000 0.687500
vt 0.625000 0.500000
vt 0.625000 0.562500
vt 0.687500 0.500000
vt 0.812500 0.500000
vt 0.750000 0.500000
vt 0.875000 0.500000
vt 0.875000 0.562500
vt 0.812500 0.625000
vt 0.875000 0.687500
vt 0.875000 0.750000
vt 0.812500 0.750000
vt 0.750000 0.750000
vt 0.687500 0.750000
vt 0.625000 0.750000
vt 0.625000 0.687500
vt 0.625000 0.625000
vt 0.437500 0.812500
vt 0.500000 0.875000
vt 0.437500 0.875000
vt 0.562500 0.812500
vt 0.500000 0.812500
vt 0.437500 0.937500
vt 0.562500 0.937500
vt 0.500000 0.937500
vt 0.375000 0.750000
vt 0.375000 0.812500
vt 0.437500 0.750000
vt 0.562500 0.750000
vt 0.500000 0.750000
vt 0.625000 0.812500
vt 0.562500 0.875000
vt 0.625000 0.937500
vt 0.625000 1.000000
vt 0.562500 1.000000
vt 0.500000 1.000000
vt 0.437500 1.000000
vt 0.375000 1.000000
vt 0.375000 0.937500
vt 0.375000 0.875000
vt 0.437500 0.062500
vt 0.500000 0.125000
vt 0.437500 0.125000
vt 0.562500 0.062500
vt 0.500000 0.062500
vt 0.437500 0.187500
vt 0.562500 0.187500
vt 0.500000 0.187500
vt 0.375000 0.000000
vt 0.375000 0.062500
vt 0.437500 0.000000
vt 0.562500 0.000000
vt 0.500000 0.000000
vt 0.625000 0.000000
vt 0.625000 0.062500
vt 0.562500 0.125000
vt 0.625000 0.187500
vt 0.625000 0.250000
vt 0.562500 0.250000
vt 0.500000 0.250000
vt 0.437500 0.250000
vt 0.375000 0.250000
vt 0.375000 0.187500
vt 0.375000 0.125000
vt 0.187500 0.562500
vt 0.250000 0.625000
vt 0.187500 0.625000
vt 0.312500 0.562500
vt 0.250000 0.562500
vt 0.187500 0.687500
vt 0.312500 0.687500
vt 0.250000 0.687500
vt 0.125000 0.500000
vt 0.125000 0.562500
vt 0.187500 0.500000
vt 0.312500 0.500000
vt 0.250000 0.500000
vt 0.375000 0.500000
vt 0.375000 0.562500
vt 0.312500 0.625000
vt 0.375000 0.687500
vt 0.312500 0.750000
vt 0.250000 0.750000
vt 0.187500 0.750000
vt 0.125000 0.750000
vt 0.125000 0.687500
vt 0.125000 0.625000
vt 0.437500 0.562500
vt 0.500000 0.625000
vt 0.437500 0.625000
vt 0.562500 0.562500
vt 0.500000 0.562500
vt 0.437500 0.687500
vt 0.562500 0.687500
vt 0.500000 0.687500
vt 0.437500 0.500000
vt 0.562500 0.500000
vt 0.500000 0.500000
vt 0.562500 0.625000
vt 0.375000 0.625000
vt 0.437500 0.312500
vt 0.500000 0.375000
vt 0.437500 0.375000
vt 0.562500 0.312500
vt 0.500000 0.312500
vt 0.437500 0.437500
vt 0.562500 0.437500
vt 0.500000 0.437500
vt 0.375000 0.312500
vt 0.625000 0.312500
vt 0.562500 0.375000
vt 0.625000 0.437500
vt 0.375000 0.437500
vt 0.375000 0.375000
vt 0.875000 0.625000
vt 0.625000 0.875000
vt 0.625000 0.125000
vt 0.625000 0.375000
s 0
usemtl Material
f 45/1/1 49/2/1 48/3/1
f 47/4/2 49/2/2 46/5/2
f 49/2/3 51/6/3 48/3/3
f 49/2/4 53/7/4 52/8/4
f 1/9/5 45/1/5 30/10/5
f 41/11/6 46/5/6 45/1/6
f 39/12/7 46/5/7 40/13/7
f 5/14/8 47/4/8 39/12/8
f 38/15/9 50/16/9 47/4/9
f 50/16/10 36/17/10 53/7/10
f 53/7/11 7/18/11 29/19/11
f 52/8/12 29/19/12 28/20/12
f 52/8/13 27/21/13 51/6/13
f 51/6/14 3/22/14 32/23/14
f 48/3/15 32/23/15 31/24/15
f 30/10/16 48/3/16 31/24/16
f 54/25/17 58/26/17 57/27/17
f 56/28/18 58/26/18 55/29/18
f 58/26/19 60/30/19 57/27/19
f 58/26/20 62/31/20 61/32/20
f 4/33/21 54/25/21 35/34/21
f 23/35/22 55/29/22 54/25/22
f 21/36/23 55/29/23 22/37/23
f 3/22/24 56/28/24 21/36/24
f 27/38/25 59/39/25 56/28/25
f 59/39/26 29/40/26 62/31/26
f 62/31/27 7/41/27 20/42/27
f 61/32/28 20/42/28 19/43/28
f 61/32/29 18/44/29 60/30/29
f 60/30/30 8/45/30 33/46/30
f 57/27/31 33/46/31 34/47/31
f 35/34/32 57/27/32 34/47/32
f 63/48/33 67/49/33 66/50/33
f 65/51/34 67/49/34 64/52/34
f 67/49/35 69/53/35 66/50/35
f 67/49/36 71/54/36 70/55/36
f 8/56/37 63/48/37 11/57/37
f 18/58/38 64/52/38 63/48/38
f 20/59/39 64/52/39 19/60/39
f 7/61/40 65/51/40 20/59/40
f 36/62/41 68/63/41 65/51/41
f 68/63/42 38/64/42 71/54/42
f 71/54/43 5/65/43 24/66/43
f 70/55/44 24/66/44 25/67/44
f 70/55/45 26/68/45 69/53/45
f 69/53/46 6/69/46 9/70/46
f 66/50/47 9/70/47 10/71/47
f 11/57/48 66/50/48 10/71/48
f 72/72/49 76/73/49 75/74/49
f 74/75/50 76/73/50 73/76/50
f 76/73/51 78/77/51 75/74/51
f 76/73/52 80/78/52 79/79/52
f 6/80/53 72/72/53 9/81/53
f 14/82/54 73/76/54 72/72/54
f 12/83/55 73/76/55 13/84/55
f 2/85/56 74/75/56 12/83/56
f 44/86/57 77/87/57 74/75/57
f 77/87/58 42/88/58 80/78/58
f 80/78/59 4/33/59 35/89/59
f 79/79/60 35/89/60 34/90/60
f 79/79/61 33/91/61 78/77/61
f 78/77/62 8/92/62 11/93/62
f 75/74/63 11/93/63 10/94/63
f 9/81/64 75/74/64 10/94/64
f 81/95/65 85/96/65 84/97/65
f 83/98/66 85/96/66 82/99/66
f 85/96/67 87/100/67 84/97/67
f 85/96/68 89/101/68 88/102/68
f 2/85/69 81/95/69 44/86/69
f 17/103/70 82/99/70 81/95/70
f 15/104/71 82/99/71 16/105/71
f 1/9/72 83/98/72 15/104/72
f 30/10/73 86/106/73 83/98/73
f 86/106/74 32/23/74 89/101/74
f 89/101/75 3/22/75 21/36/75
f 88/102/76 21/36/76 22/37/76
f 88/102/77 23/35/77 87/100/77
f 87/100/78 4/33/78 42/88/78
f 84/97/79 42/88/79 43/107/79
f 44/86/80 84/97/80 43/107/80
f 90/108/81 94/109/81 93/110/81
f 92/111/82 94/109/82 91/112/82
f 94/109/83 96/113/83 93/110/83
f 94/109/84 98/114/84 97/115/84
f 6/69/85 90/108/85 14/116/85
f 26/68/86 91/112/86 90/108/86
f 24/66/87 91/112/87 25/67/87
f 5/65/88 92/111/88 24/66/88
f 39/117/89 95/118/89 92/111/89
f 95/118/90 41/119/90 98/114/90
f 98/114/91 1/9/91 15/104/91
f 97/115/92 15/104/92 16/105/92
f 97/115/93 17/103/93 96/113/93
f 96/113/94 2/85/94 12/120/94
f 93/110/95 12/120/95 13/121/95
f 14/116/96 93/110/96 13/121/96
f 45/1/97 46/5/97 49/2/97
f 47/4/98 50/16/98 49/2/98
f 49/2/99 52/8/99 51/6/99
f 49/2/100 50/16/100 53/7/100
f 1/9/101 41/11/101 45/1/101
f 41/11/102 40/13/102 46/5/102
f 39/12/103 47/4/103 46/5/103
f 5/14/104 38/15/104 47/4/104
f 38/15/105 37/122/105 50/16/105
f 50/16/106 37/122/106 36/17/106
f 53/7/107 36/17/107 7/18/107
f 52/8/108 53/7/108 29/19/108
f 52/8/109 28/20/109 27/21/109
f 51/6/110 27/21/110 3/22/110
f 48/3/111 51/6/111 32/23/111
f 30/10/112 45/1/112 48/3/112
f 54/25/113 55/29/113 58/26/113
f 56/28/114 59/39/114 58/26/114
f 58/26/115 61/32/115 60/30/115
f 58/26/116 59/39/116 62/31/116
f 4/33/117 23/35/117 54/25/117
f 23/35/118 22/37/118 55/29/118
f 21/36/119 56/28/119 55/29/119
f 3/22/120 27/38/120 56/28/120
f 27/38/121 28/123/121 59/39/121
f 59/39/122 28/123/122 29/40/122
f 62/31/123 29/40/123 7/41/123
f 61/32/124 62/31/124 20/42/124
f 61/32/125 19/43/125 18/44/125
f 60/30/126 18/44/126 8/45/126
f 57/27/127 60/30/127 33/46/127
f 35/34/128 54/25/128 57/27/128
f 63/48/129 64/52/129 67/49/129
f 65/51/130 68/63/130 67/49/130
f 67/49/131 70/55/131 69/53/131
f 67/49/132 68/63/132 71/54/132
f 8/56/133 18/58/133 63/48/133
f 18/58/134 19/60/134 64/52/134
f 20/59/135 65/51/135 64/52/135
f 7/61/136 36/62/136 65/51/136
f 36/62/137 37/124/137 68/63/137
f 68/63/138 37/124/138 38/64/138
f 71/54/139 38/64/139 5/65/139
f 70/55/140 71/54/140 24/66/140
f 70/55/141 25/67/141 26/68/141
f 69/53/142 26/68/142 6/69/142
f 66/50/143 69/53/143 9/70/143
f 11/57/144 63/48/144 66/50/144
f 72/72/145 73/76/145 76/73/145
f 74/75/146 77/87/146 76/73/146
f 76/73/147 79/79/147 78/77/147
f 76/73/148 77/87/148 80/78/148
f 6/80/149 14/82/149 72/72/149
f 14/82/150 13/84/150 73/76/150
f 12/83/151 74/75/151 73/76/151
f 2/85/152 44/86/152 74/75/152
f 44/86/153 43/107/153 77/87/153
f 77/87/154 43/107/154 42/88/154
f 80/78/155 42/88/155 4/33/155
f 79/79/156 80/78/156 35/89/156
f 79/79/157 34/90/157 33/91/157
f 78/77/158 33/91/158 8/92/158
f 75/74/159 78/77/159 11/93/159
f 9/81/160 72/72/160 75/74/160
f 81/95/161 82/99/161 85/96/161
f 83/98/162 86/106/162 85/96/162
f 85/96/163 88/102/163 87/100/163
f 85/96/164 86/106/164 89/101/164
f 2/85/165 17/103/165 81/95/165
f 17/103/166 16/105/166 82/99/166
f 15/104/167 83/98/167 82/99/167
f 1/9/168 30/10/168 83/98/168
f 30/10/169 31/24/169 86/106/169
f 86/106/170 31/24/170 32/23/170
f 89/101/171 32/23/171 3/22/171
f 88/102/172 89/101/172 21/36/172
f 88/102/173 22/37/173 23/35/173
f 87/100/174 23/35/174 4/33/174
f 84/97/175 87/100/175 42/88/175
f 44/86/176 81/95/176 84/97/176
f 90/108/177 91/112/177 94/109/177
f 92/111/178 95/118/178 94/109/178
f 94/109/179 97/115/179 96/113/179
f 94/109/180 95/118/180 98/114/180
f 6/69/181 26/68/181 90/108/181
f 26/68/182 25/67/182 91/112/182
f 24/66/183 92/111/183 91/112/183
f 5/65/184 39/117/184 92/111/184
f 39/117/185 40/125/185 95/118/185
f 95/118/186 40/125/186 41/119/186
f 98/114/187 41/119/187 1/9/187
f 97/115/188 98/114/188 15/104/188
f 97/115/189 16/105/189 17/103/189
f 96/113/190 17/103/190 2/85/190
f 93/110/191 96/113/191 12/120/191
f 14/116/192 90/108/192 93/110/192
o body
v -0.200000 -0.200000 0.053357
v -0.200000 -0.200000 1.027728
v -0.200000 0.200000 0.053357
v -0.200000 0.200000 1.027728
v 0.200000 -0.200000 0.053357
v 0.200000 -0.200000 1.027728
v 0.200000 0.200000 0.053357
v 0.200000 0.200000 1.027728
vn -1.0000 -0.0000 -0.0000
vn -0.0000 1.0000 -0.0000
vn 1.0000 -0.0000 -0.0000
vn -0.0000 -1.0000 -0.0000
vn -0.0000 -0.0000 -1.0000
vn -0.0000 -0.0000 1.0000
vt 0.625000 0.000000
vt 0.375000 0.250000
vt 0.375000 0.000000
vt 0.625000 0.250000
vt 0.375000 0.500000
vt 0.625000 0.500000
vt 0.375000 0.750000
vt 0.625000 0.750000
vt 0.375000 1.000000
vt 0.125000 0.750000
vt 0.125000 0.500000
vt 0.875000 0.500000
vt 0.625000 1.000000
vt 0.875000 0.750000
s 0
usemtl Material.001
f 100/126/193 101/127/193 99/128/193
f 102/129/194 105/130/194 101/127/194
f 106/131/195 103/132/195 105/130/195
f 104/133/196 99/134/196 103/132/196
f 105/130/197 99/135/197 101/136/197
f 102/137/198 104/133/198 106/131/198
f 100/126/193 102/129/193 101/127/193
f 102/129/194 106/131/194 105/130/194
f 106/131/195 104/133/195 103/132/195
f 104/133/196 100/138/196 99/134/196
f 105/130/197 103/132/197 99/135/197
f 102/137/198 100/139/198 104/133/198
o gun
v 0.200765 0.168727 0.774194
v 1.200765 0.375410 0.774194
v 0.200765 0.119308 0.637592
v 1.200765 0.265455 0.470261
v 0.200765 0.000000 0.581010
v 1.200765 -0.000000 0.344368
v 0.200765 -0.119308 0.637592
v 1.200765 -0.265455 0.470261
v 0.200765 -0.168727 0.774194
v 1.200765 -0.375410 0.774194
v 0.200765 -0.119308 0.910796
v 1.200765 -0.265455 1.078127
v 0.200765 0.000000 0.967378
v 1.200765 -0.000000 1.204020
v 0.200765 0.119308 0.910796
v 1.200765 0.265455 1.078127
vn -0.1908 0.9231 -0.3339
vn -0.2091 0.4190 -0.8836
vn -0.2091 -0.4190 -0.8836
vn -0.1908 -0.9231 -0.3339
vn -0.1908 -0.9231 0.3339
vn -0.2091 -0.4190 0.8836
vn 1.0000 -0.0000 -0.0000
vn -0.2091 0.4190 0.8836
vn -0.1908 0.9231 0.3339
vn -1.0000 -0.0000 -0.0000
vt 1.000000 1.000000
vt 0.875000 0.500000
vt 1.000000 0.500000
vt 0.875000 1.000000
vt 0.750000 0.500000
vt 0.750000 1.000000
vt 0.625000 0.500000
vt 0.500000 1.000000
vt 0.500000 0.500000
vt 0.375000 0.500000
vt 0.375000 1.000000
vt 0.250000 0.500000
vt 0.010000 0.250000
vt 0.250000 0.010000
vt 0.490000 0.250000
vt 0.250000 1.000000
vt 0.125000 0.500000
vt 0.000000 1.000000
vt 0.000000 0.500000
vt 0.919706 0.080294
vt 0.580294 0.080294
vt 0.580294 0.419706
vt 0.625000 1.000000
vt 0.419706 0.419706
vt 0.250000 0.490000
vt 0.080294 0.419706
vt 0.080294 0.080294
vt 0.419706 0.080294
vt 0.125000 1.000000
vt 0.750000 0.490000
vt 0.919706 0.419706
vt 0.990000 0.250000
vt 0.750000 0.010000
vt 0.510000 0.250000
s 0
usemtl Material.002
f 108/140/199 109/141/199 107/142/199
f 110/143/200 111/144/200 109/141/200
f 112/145/201 113/146/201 111/144/201
f 113/146/202 116/147/202 115/148/202
f 116/147/203 117/149/203 115/148/203
f 118/150/204 119/151/204 117/149/204
f 120/152/205 116/153/205 112/154/205
f 120/155/206 121/156/206 119/151/206
f 121/156/207 108/157/207 107/158/207
f 113/159/208 117/160/208 121/161/208
f 108/140/199 110/143/199 109/141/199
f 110/143/200 112/145/200 111/144/200
f 112/145/201 114/162/201 113/146/201
f 113/146/202 114/162/202 116/147/202
f 116/147/203 118/150/203 117/149/203
f 118/150/204 120/155/204 119/151/204
f 112/154/205 110/163/205 108/164/205
f 108/164/205 122/165/205 120/152/205
f 120/152/205 118/166/205 116/153/205
f 116/153/205 114/167/205 112/154/205
f 112/154/205 108/164/205 120/152/205
f 120/155/206 122/168/206 121/156/206
f 121/156/207 122/168/207 108/157/207
f 121/161/208 107/169/208 109/170/208
f 109/170/208 111/171/208 113/159/208
f 113/159/208 115/172/208 117/160/208
f 117/160/208 119/173/208 121/161/208
f 121/161/208 109/170/208 113/159/208
