# Blender 5.0.1
# www.blender.org
mtllib bomb.mtl
o body
v -0.699425 0.360000 0.932588
v 0.849891 0.360000 0.932588
v -0.699425 0.254559 0.678030
v 0.849891 0.254559 0.678030
v -0.699425 0.000000 0.572588
v 0.849891 0.000000 0.572588
v -0.699425 -0.254559 0.678030
v 0.849891 -0.254559 0.678030
v -0.699425 -0.360000 0.932588
v 0.849891 -0.360000 0.932588
v -0.699425 -0.254559 1.187147
v 0.849891 -0.254559 1.187147
v -0.699425 0.000000 1.292588
v 0.849891 0.000000 1.292588
v -0.699425 0.254559 1.187147
v 0.849891 0.254559 1.187147
v 1.561425 0.146668 0.932588
v 1.561425 0.103710 0.828879
v 1.561425 -0.000000 0.785921
v 1.561425 -0.103710 0.828879
v 1.561425 -0.146668 0.932588
v 1.561425 -0.103710 1.036298
v 1.561425 -0.000000 1.079256
v 1.561425 0.103710 1.036298
vn -0.0000 0.9239 -0.3827
vn -0.0000 0.3827 -0.9239
vn -0.0000 -0.3827 -0.9239
vn -0.0000 -0.9239 -0.3827
vn -0.0000 -0.9239 0.3827
vn -0.0000 -0.3827 0.9239
vn 0.2669 0.3688 -0.8904
vn -0.0000 0.3827 0.9239
vn -0.0000 0.9239 0.3827
vn -1.0000 -0.0000 -0.0000
vn 1.0000 -0.0000 -0.0000
vn 0.2669 -0.8904 0.3688
vn 0.2669 0.8904 0.3688
vn 0.2669 0.8904 -0.3688
vn 0.2669 -0.3688 -0.8904
vn 0.2669 -0.3688 0.8904
vn 0.2669 -0.8904 -0.3688
vn 0.2669 0.3688 0.8904
s 0
usemtl Material.001
f 2//1 3//1 1//1
f 4//2 5//2 3//2
f 6//3 7//3 5//3
f 8//4 9//4 7//4
f 10//5 11//5 9//5
f 12//6 13//6 11//6
f 6//7 18//7 19//7
f 14//8 15//8 13//8
f 16//9 1//9 15//9
f 7//10 11//10 15//10
f 23//11 21//11 19//11
f 10//12 22//12 12//12
f 2//13 24//13 17//13
f 2//14 18//14 4//14
f 6//15 20//15 8//15
f 14//16 22//16 23//16
f 10//17 20//17 21//17
f 14//18 24//18 16//18
f 2//1 4//1 3//1
f 4//2 6//2 5//2
f 6//3 8//3 7//3
f 8//4 10//4 9//4
f 10//5 12//5 11//5
f 12//6 14//6 13//6
f 6//7 4//7 18//7
f 14//8 16//8 15//8
f 16//9 2//9 1//9
f 15//10 1//10 3//10
f 3//10 5//10 7//10
f 7//10 9//10 11//10
f 11//10 13//10 15//10
f 15//10 3//10 7//10
f 19//11 18//11 17//11
f 17//11 24//11 23//11
f 23//11 22//11 21//11
f 21//11 20//11 19//11
f 19//11 17//11 23//11
f 10//12 21//12 22//12
f 2//13 16//13 24//13
f 2//14 17//14 18//14
f 6//15 19//15 20//15
f 14//16 12//16 22//16
f 10//17 8//17 20//17
f 14//18 23//18 24//18
o aileron
v -0.623316 -0.117903 1.117379
v -0.623316 -0.117903 1.837379
v -0.623316 0.117903 1.117379
v -0.623316 0.117903 1.837379
v 0.096684 -0.117903 1.117379
v -0.420194 -0.117903 1.837379
v 0.096684 0.117903 1.117379
v -0.420194 0.117903 1.837379
v -0.623315 -0.117903 0.747797
v -0.623315 -0.117903 0.027797
v -0.623315 0.117903 0.747797
v -0.623315 0.117903 0.027797
v 0.096684 -0.117903 0.747797
v -0.420194 -0.117903 0.027797
v 0.096684 0.117903 0.747797
v -0.420194 0.117903 0.027797
vn -1.0000 -0.0000 -0.0000
vn -0.0000 1.0000 -0.0000
vn 0.8123 -0.0000 0.5832
vn -0.0000 -1.0000 -0.0000
vn -0.0000 -0.0000 -1.0000
vn -0.0000 -0.0000 1.0000
vn 0.8123 -0.0000 -0.5832
s 0
usemtl Material.002
f 26//19 27//19 25//19
f 27//20 32//20 31//20
f 32//21 29//21 31//21
f 30//22 25//22 29//22
f 31//23 25//23 27//23
f 28//24 30//24 32//24
f 35//19 34//19 33//19
f 35//20 40//20 36//20
f 37//25 40//25 39//25
f 33//22 38//22 37//22
f 33//24 39//24 35//24
f 38//23 36//23 40//23
f 26//19 28//19 27//19
f 27//20 28//20 32//20
f 32//21 30//21 29//21
f 30//22 26//22 25//22
f 31//23 29//23 25//23
f 28//24 26//24 30//24
f 35//19 36//19 34//19
f 35//20 39//20 40//20
f 37//25 38//25 40//25
f 33//22 34//22 38//22
f 33//24 37//24 39//24
f 38//23 34//23 36//23
