# Blender 5.0.1
# www.blender.org
mtllib barrier_basic.mtl
o Cylinder
v -2.855069 0.376379 -0.068595
v -2.855069 0.376379 0.950496
v -2.776065 0.369147 -0.068595
v -2.776065 0.369147 0.950496
v -2.700098 0.347728 -0.068595
v -2.700098 0.347728 0.950496
v -2.630086 0.312947 -0.068595
v -2.630086 0.312947 0.950496
v -2.568720 0.266140 -0.068595
v -2.568720 0.266140 0.950496
v -2.518358 0.209105 -0.068595
v -2.518358 0.209105 0.950496
v -2.480936 0.144034 -0.068595
v -2.480936 0.144034 0.950496
v -2.457892 0.073428 -0.068595
v -2.457892 0.073428 0.950496
v -2.450110 0.000000 -0.068595
v -2.450110 0.000000 0.950496
v -2.457892 -0.073428 -0.068595
v -2.457892 -0.073428 0.950496
v -2.480936 -0.144034 -0.068595
v -2.480936 -0.144034 0.950496
v -2.518358 -0.209105 -0.068595
v -2.518358 -0.209105 0.950496
v -2.568720 -0.266140 -0.068595
v -2.568720 -0.266140 0.950496
v -2.630086 -0.312947 -0.068595
v -2.630086 -0.312947 0.950496
v -2.700098 -0.347728 -0.068595
v -2.700098 -0.347728 0.950496
v -2.776065 -0.369147 -0.068595
v -2.776065 -0.369147 0.950496
v -2.855069 -0.376379 -0.068595
v -2.855069 -0.376379 0.950496
v -2.934072 -0.369147 -0.068595
v -2.934072 -0.369147 0.950496
v -3.010040 -0.347728 -0.068595
v -3.010040 -0.347728 0.950496
v -3.080052 -0.312947 -0.068595
v -3.080052 -0.312947 0.950496
v -3.141418 -0.266140 -0.068595
v -3.141418 -0.266140 0.950496
v -3.191780 -0.209105 -0.068595
v -3.191780 -0.209105 0.950496
v -3.229202 -0.144034 -0.068595
v -3.229202 -0.144034 0.950496
v -3.252246 -0.073428 -0.068595
v -3.252246 -0.073428 0.950496
v -3.260027 0.000000 -0.068595
v -3.260027 0.000000 0.950496
v -3.252246 0.073428 -0.068595
v -3.252246 0.073428 0.950496
v -3.229202 0.144034 -0.068595
v -3.229202 0.144034 0.950496
v -3.191780 0.209105 -0.068595
v -3.191780 0.209105 0.950496
v -3.141418 0.266140 -0.068595
v -3.141418 0.266140 0.950496
v -3.080052 0.312947 -0.068595
v -3.080052 0.312947 0.950496
v -3.010040 0.347728 -0.068595
v -3.010040 0.347728 0.950496
v -2.934072 0.369147 -0.068595
v -2.934072 0.369147 0.950496
vn 0.0912 0.9958 -0.0000
vn 0.2714 0.9625 -0.0000
vn 0.4449 0.8956 -0.0000
vn 0.6065 0.7951 -0.0000
vn 0.7496 0.6619 -0.0000
vn 0.8669 0.4985 -0.0000
vn 0.9506 0.3103 -0.0000
vn 0.9944 0.1054 -0.0000
vn 0.9944 -0.1054 -0.0000
vn 0.9506 -0.3103 -0.0000
vn 0.8669 -0.4985 -0.0000
vn 0.7496 -0.6619 -0.0000
vn 0.6065 -0.7951 -0.0000
vn 0.4449 -0.8956 -0.0000
vn 0.2714 -0.9625 -0.0000
vn 0.0912 -0.9958 -0.0000
vn -0.0912 -0.9958 -0.0000
vn -0.2714 -0.9625 -0.0000
vn -0.4449 -0.8956 -0.0000
vn -0.6065 -0.7951 -0.0000
vn -0.7496 -0.6619 -0.0000
vn -0.8669 -0.4985 -0.0000
vn -0.9506 -0.3103 -0.0000
vn -0.9944 -0.1054 -0.0000
vn -0.9944 0.1054 -0.0000
vn -0.9506 0.3103 -0.0000
vn -0.8669 0.4985 -0.0000
vn -0.7496 0.6619 -0.0000
vn -0.6065 0.7951 -0.0000
vn -0.4449 0.8956 -0.0000
vn -0.0000 -0.0000 1.0000
vn -0.2714 0.9625 -0.0000
vn -0.0912 0.9958 -0.0000
vn -0.0000 -0.0000 -1.0000
s 0
usemtl Material.001
f 2//1 3//1 1//1
f 4//2 5//2 3//2
f 6//3 7//3 5//3
f 8//4 9//4 7//4
f 10//5 11//5 9//5
f 12//6 13//6 11//6
f 14//7 15//7 13//7
f 16//8 17//8 15//8
f 18//9 19//9 17//9
f 20//10 21//10 19//10
f 22//11 23//11 21//11
f 24//12 25//12 23//12
f 26//13 27//13 25//13
f 28//14 29//14 27//14
f 30//15 31//15 29//15
f 32//16 33//16 31//16
f 34//17 35//17 33//17
f 36//18 37//18 35//18
f 38//19 39//19 37//19
f 40//20 41//20 39//20
f 42//21 43//21 41//21
f 44//22 45//22 43//22
f 46//23 47//23 45//23
f 48//24 49//24 47//24
f 50//25 51//25 49//25
f 52//26 53//26 51//26
f 54//27 55//27 53//27
f 56//28 57//28 55//28
f 58//29 59//29 57//29
f 60//30 61//30 59//30
f 38//31 22//31 6//31
f 62//32 63//32 61//32
f 64//33 1//33 63//33
f 31//34 47//34 63//34
f 2//1 4//1 3//1
f 4//2 6//2 5//2
f 6//3 8//3 7//3
f 8//4 10//4 9//4
f 10//5 12//5 11//5
f 12//6 14//6 13//6
f 14//7 16//7 15//7
f 16//8 18//8 17//8
f 18//9 20//9 19//9
f 20//10 22//10 21//10
f 22//11 24//11 23//11
f 24//12 26//12 25//12
f 26//13 28//13 27//13
f 28//14 30//14 29//14
f 30//15 32//15 31//15
f 32//16 34//16 33//16
f 34//17 36//17 35//17
f 36//18 38//18 37//18
f 38//19 40//19 39//19
f 40//20 42//20 41//20
f 42//21 44//21 43//21
f 44//22 46//22 45//22
f 46//23 48//23 47//23
f 48//24 50//24 49//24
f 50//25 52//25 51//25
f 52//26 54//26 53//26
f 54//27 56//27 55//27
f 56//28 58//28 57//28
f 58//29 60//29 59//29
f 60//30 62//30 61//30
f 6//31 4//31 2//31
f 2//31 64//31 62//31
f 62//31 60//31 58//31
f 58//31 56//31 54//31
f 54//31 52//31 50//31
f 50//31 48//31 46//31
f 46//31 44//31 42//31
f 42//31 40//31 38//31
f 38//31 36//31 34//31
f 34//31 32//31 30//31
f 30//31 28//31 26//31
f 26//31 24//31 22//31
f 22//31 20//31 18//31
f 18//31 16//31 14//31
f 14//31 12//31 10//31
f 10//31 8//31 6//31
f 6//31 2//31 62//31
f 62//31 58//31 54//31
f 54//31 50//31 46//31
f 46//31 42//31 38//31
f 38//31 34//31 30//31
f 30//31 26//31 22//31
f 22//31 18//31 14//31
f 14//31 10//31 6//31
f 6//31 62//31 54//31
f 54//31 46//31 38//31
f 38//31 30//31 22//31
f 22//31 14//31 6//31
f 6//31 54//31 38//31
f 62//32 64//32 63//32
f 64//33 2//33 1//33
f 63//34 1//34 3//34
f 3//34 5//34 7//34
f 7//34 9//34 11//34
f 11//34 13//34 15//34
f 15//34 17//34 19//34
f 19//34 21//34 23//34
f 23//34 25//34 27//34
f 27//34 29//34 31//34
f 31//34 33//34 35//34
f 35//34 37//34 39//34
f 39//34 41//34 43//34
f 43//34 45//34 47//34
f 47//34 49//34 51//34
f 51//34 53//34 55//34
f 55//34 57//34 59//34
f 59//34 61//34 63//34
f 63//34 3//34 7//34
f 7//34 11//34 15//34
f 15//34 19//34 23//34
f 23//34 27//34 31//34
f 31//34 35//34 39//34
f 39//34 43//34 47//34
f 47//34 51//34 55//34
f 55//34 59//34 63//34
f 63//34 7//34 15//34
f 15//34 23//34 31//34
f 31//34 39//34 47//34
f 47//34 55//34 63//34
f 63//34 15//34 31//34
o Cylinder.001
v 2.888124 0.376379 -0.068595
v 2.888124 0.376379 0.950496
v 2.967127 0.369147 -0.068595
v 2.967127 0.369147 0.950496
v 3.043095 0.347728 -0.068595
v 3.043095 0.347728 0.950496
v 3.113106 0.312947 -0.068595
v 3.113106 0.312947 0.950496
v 3.174473 0.266140 -0.068595
v 3.174473 0.266140 0.950496
v 3.224834 0.209105 -0.068595
v 3.224834 0.209105 0.950496
v 3.262257 0.144034 -0.068595
v 3.262257 0.144034 0.950496
v 3.285301 0.073428 -0.068595
v 3.285301 0.073428 0.950496
v 3.293082 0.000000 -0.068595
v 3.293082 0.000000 0.950496
v 3.285301 -0.073428 -0.068595
v 3.285301 -0.073428 0.950496
v 3.262257 -0.144034 -0.068595
v 3.262257 -0.144034 0.950496
v 3.224834 -0.209105 -0.068595
v 3.224834 -0.209105 0.950496
v 3.174473 -0.266140 -0.068595
v 3.174473 -0.266140 0.950496
v 3.113106 -0.312947 -0.068595
v 3.113106 -0.312947 0.950496
v 3.043095 -0.347728 -0.068595
v 3.043095 -0.347728 0.950496
v 2.967127 -0.369147 -0.068595
v 2.967127 -0.369147 0.950496
v 2.888124 -0.376379 -0.068595
v 2.888124 -0.376379 0.950496
v 2.809120 -0.369147 -0.068595
v 2.809120 -0.369147 0.950496
v 2.733153 -0.347728 -0.068595
v 2.733153 -0.347728 0.950496
v 2.663141 -0.312947 -0.068595
v 2.663141 -0.312947 0.950496
v 2.601775 -0.266140 -0.068595
v 2.601775 -0.266140 0.950496
v 2.551413 -0.209105 -0.068595
v 2.551413 -0.209105 0.950496
v 2.513991 -0.144034 -0.068595
v 2.513991 -0.144034 0.950496
v 2.490947 -0.073428 -0.068595
v 2.490947 -0.073428 0.950496
v 2.483165 0.000000 -0.068595
v 2.483165 0.000000 0.950496
v 2.490947 0.073428 -0.068595
v 2.490947 0.073428 0.950496
v 2.513991 0.144034 -0.068595
v 2.513991 0.144034 0.950496
v 2.551413 0.209105 -0.068595
v 2.551413 0.209105 0.950496
v 2.601775 0.266140 -0.068595
v 2.601775 0.266140 0.950496
v 2.663141 0.312947 -0.068595
v 2.663141 0.312947 0.950496
v 2.733153 0.347728 -0.068595
v 2.733153 0.347728 0.950496
v 2.809120 0.369147 -0.068595
v 2.809120 0.369147 0.950496
vn 0.0912 0.9958 -0.0000
vn 0.2714 0.9625 -0.0000
vn 0.4449 0.8956 -0.0000
vn 0.6065 0.7951 -0.0000
vn 0.7496 0.6619 -0.0000
vn 0.8669 0.4985 -0.0000
vn 0.9506 0.3103 -0.0000
vn 0.9944 0.1054 -0.0000
vn 0.9944 -0.1054 -0.0000
vn 0.9506 -0.3103 -0.0000
vn 0.8669 -0.4985 -0.0000
vn 0.7496 -0.6619 -0.0000
vn 0.6065 -0.7951 -0.0000
vn 0.4449 -0.8956 -0.0000
vn 0.2714 -0.9625 -0.0000
vn 0.0912 -0.9958 -0.0000
vn -0.0912 -0.9958 -0.0000
vn -0.2714 -0.9625 -0.0000
vn -0.4449 -0.8956 -0.0000
vn -0.6065 -0.7951 -0.0000
vn -0.7496 -0.6619 -0.0000
vn -0.8669 -0.4985 -0.0000
vn -0.9506 -0.3103 -0.0000
vn -0.9944 -0.1054 -0.0000
vn -0.9944 0.1054 -0.0000
vn -0.9506 0.3103 -0.0000
vn -0.8669 0.4985 -0.0000
vn -0.7496 0.6619 -0.0000
vn -0.6065 0.7951 -0.0000
vn -0.4449 0.8956 -0.0000
vn -0.0000 -0.0000 1.0000
vn -0.2714 0.9625 -0.0000
vn -0.0912 0.9958 -0.0000
vn -0.0000 -0.0000 -1.0000
s 0
usemtl Material.001
f 66//35 67//35 65//35
f 68//36 69//36 67//36
f 70//37 71//37 69//37
f 72//38 73//38 71//38
f 74//39 75//39 73//39
f 76//40 77//40 75//40
f 78//41 79//41 77//41
f 80//42 81//42 79//42
f 82//43 83//43 81//43
f 84//44 85//44 83//44
f 86//45 87//45 85//45
f 88//46 89//46 87//46
f 90//47 91//47 89//47
f 92//48 93//48 91//48
f 94//49 95//49 93//49
f 96//50 97//50 95//50
f 98//51 99//51 97//51
f 100//52 101//52 99//52
f 102//53 103//53 101//53
f 104//54 105//54 103//54
f 106//55 107//55 105//55
f 108//56 109//56 107//56
f 110//57 111//57 109//57
f 112//58 113//58 111//58
f 114//59 115//59 113//59
f 116//60 117//60 115//60
f 118//61 119//61 117//61
f 120//62 121//62 119//62
f 122//63 123//63 121//63
f 124//64 125//64 123//64
f 102//65 86//65 70//65
f 126//66 127//66 125//66
f 128//67 65//67 127//67
f 95//68 111//68 127//68
f 66//35 68//35 67//35
f 68//36 70//36 69//36
f 70//37 72//37 71//37
f 72//38 74//38 73//38
f 74//39 76//39 75//39
f 76//40 78//40 77//40
f 78//41 80//41 79//41
f 80//42 82//42 81//42
f 82//43 84//43 83//43
f 84//44 86//44 85//44
f 86//45 88//45 87//45
f 88//46 90//46 89//46
f 90//47 92//47 91//47
f 92//48 94//48 93//48
f 94//49 96//49 95//49
f 96//50 98//50 97//50
f 98//51 100//51 99//51
f 100//52 102//52 101//52
f 102//53 104//53 103//53
f 104//54 106//54 105//54
f 106//55 108//55 107//55
f 108//56 110//56 109//56
f 110//57 112//57 111//57
f 112//58 114//58 113//58
f 114//59 116//59 115//59
f 116//60 118//60 117//60
f 118//61 120//61 119//61
f 120//62 122//62 121//62
f 122//63 124//63 123//63
f 124//64 126//64 125//64
f 70//65 68//65 66//65
f 66//65 128//65 126//65
f 126//65 124//65 122//65
f 122//65 120//65 118//65
f 118//65 116//65 114//65
f 114//65 112//65 110//65
f 110//65 108//65 106//65
f 106//65 104//65 102//65
f 102//65 100//65 98//65
f 98//65 96//65 94//65
f 94//65 92//65 90//65
f 90//65 88//65 86//65
f 86//65 84//65 82//65
f 82//65 80//65 78//65
f 78//65 76//65 74//65
f 74//65 72//65 70//65
f 70//65 66//65 126//65
f 126//65 122//65 118//65
f 118//65 114//65 110//65
f 110//65 106//65 102//65
f 102//65 98//65 94//65
f 94//65 90//65 86//65
f 86//65 82//65 78//65
f 78//65 74//65 70//65
f 70//65 126//65 118//65
f 118//65 110//65 102//65
f 102//65 94//65 86//65
f 86//65 78//65 70//65
f 70//65 118//65 102//65
f 126//66 128//66 127//66
f 128//67 66//67 65//67
f 127//68 65//68 67//68
f 67//68 69//68 71//68
f 71//68 73//68 75//68
f 75//68 77//68 79//68
f 79//68 81//68 83//68
f 83//68 85//68 87//68
f 87//68 89//68 91//68
f 91//68 93//68 95//68
f 95//68 97//68 99//68
f 99//68 101//68 103//68
f 103//68 105//68 107//68
f 107//68 109//68 111//68
f 111//68 113//68 115//68
f 115//68 117//68 119//68
f 119//68 121//68 123//68
f 123//68 125//68 127//68
f 127//68 67//68 71//68
f 71//68 75//68 79//68
f 79//68 83//68 87//68
f 87//68 91//68 95//68
f 95//68 99//68 103//68
f 103//68 107//68 111//68
f 111//68 115//68 119//68
f 119//68 123//68 127//68
f 127//68 71//68 79//68
f 79//68 87//68 95//68
f 95//68 103//68 111//68
f 111//68 119//68 127//68
f 127//68 79//68 95//68
o Cylinder.002
v -2.567647 0.376379 0.440950
v 2.584003 0.376379 0.440951
v -2.567647 0.369147 0.401932
v 2.584003 0.369147 0.401933
v -2.567647 0.347728 0.364414
v 2.584003 0.347728 0.364414
v -2.567647 0.312947 0.329836
v 2.584003 0.312947 0.329837
v -2.567647 0.266140 0.299529
v 2.584003 0.266140 0.299529
v -2.567647 0.209105 0.274656
v 2.584003 0.209105 0.274657
v -2.567647 0.144034 0.256174
v 2.584003 0.144034 0.256175
v -2.567647 0.073428 0.244793
v 2.584003 0.073428 0.244794
v -2.567647 0.000000 0.240950
v 2.584003 0.000000 0.240951
v -2.567647 -0.073428 0.244793
v 2.584003 -0.073428 0.244794
v -2.567647 -0.144034 0.256174
v 2.584003 -0.144034 0.256175
v -2.567647 -0.209105 0.274656
v 2.584003 -0.209105 0.274657
v -2.567647 -0.266140 0.299529
v 2.584003 -0.266140 0.299529
v -2.567647 -0.312947 0.329836
v 2.584003 -0.312947 0.329837
v -2.567647 -0.347728 0.364414
v 2.584003 -0.347728 0.364414
v -2.567647 -0.369147 0.401932
v 2.584003 -0.369147 0.401933
v -2.567647 -0.376379 0.440950
v 2.584003 -0.376379 0.440951
v -2.567647 -0.369147 0.479968
v 2.584003 -0.369147 0.479969
v -2.567647 -0.347728 0.517487
v 2.584003 -0.347728 0.517487
v -2.567647 -0.312947 0.552064
v 2.584003 -0.312947 0.552065
v -2.567647 -0.266140 0.582372
v 2.584003 -0.266140 0.582372
v -2.567647 -0.209105 0.607244
v 2.584003 -0.209105 0.607245
v -2.567647 -0.144034 0.625726
v 2.584003 -0.144034 0.625727
v -2.567647 -0.073428 0.637107
v 2.584003 -0.073428 0.637108
v -2.567647 0.000000 0.640950
v 2.584003 0.000000 0.640951
v -2.567647 0.073428 0.637107
v 2.584003 0.073428 0.637108
v -2.567647 0.144034 0.625726
v 2.584003 0.144034 0.625727
v -2.567647 0.209105 0.607244
v 2.584003 0.209105 0.607245
v -2.567647 0.266140 0.582372
v 2.584003 0.266140 0.582372
v -2.567647 0.312947 0.552064
v 2.584003 0.312947 0.552065
v -2.567647 0.347728 0.517487
v 2.584003 0.347728 0.517487
v -2.567647 0.369147 0.479968
v 2.584003 0.369147 0.479969
vn -0.0000 0.9833 -0.1822
vn -0.0000 0.8685 -0.4958
vn -0.0000 0.7050 -0.7092
vn -0.0000 0.5435 -0.8394
vn -0.0000 0.3997 -0.9166
vn -0.0000 0.2732 -0.9620
vn -0.0000 0.1591 -0.9873
vn -0.0000 0.0523 -0.9986
vn -0.0000 -0.0523 -0.9986
vn -0.0000 -0.1591 -0.9873
vn -0.0000 -0.2732 -0.9620
vn -0.0000 -0.3997 -0.9166
vn -0.0000 -0.5435 -0.8394
vn -0.0000 -0.7050 -0.7092
vn -0.0000 -0.8685 -0.4958
vn -0.0000 -0.9833 -0.1822
vn -0.0000 -0.9833 0.1822
vn -0.0000 -0.8685 0.4958
vn -0.0000 -0.7050 0.7092
vn -0.0000 -0.5435 0.8394
vn -0.0000 -0.3997 0.9166
vn -0.0000 -0.2732 0.9620
vn -0.0000 -0.1591 0.9873
vn -0.0000 -0.0523 0.9986
vn -0.0000 0.0523 0.9986
vn -0.0000 0.1591 0.9873
vn -0.0000 0.2732 0.9620
vn -0.0000 0.3997 0.9166
vn -0.0000 0.5435 0.8394
vn -0.0000 0.7050 0.7092
vn 1.0000 -0.0000 -0.0000
vn -0.0000 0.8685 0.4958
vn -0.0000 0.9833 0.1822
vn -1.0000 -0.0000 -0.0000
s 0
usemtl Material.001
f 130//69 131//69 129//69
f 132//70 133//70 131//70
f 134//71 135//71 133//71
f 136//72 137//72 135//72
f 138//73 139//73 137//73
f 140//74 141//74 139//74
f 142//75 143//75 141//75
f 144//76 145//76 143//76
f 146//77 147//77 145//77
f 148//78 149//78 147//78
f 150//79 151//79 149//79
f 152//80 153//80 151//80
f 154//81 155//81 153//81
f 156//82 157//82 155//82
f 158//83 159//83 157//83
f 160//84 161//84 159//84
f 162//85 163//85 161//85
f 164//86 165//86 163//86
f 166//87 167//87 165//87
f 168//88 169//88 167//88
f 170//89 171//89 169//89
f 172//90 173//90 171//90
f 174//91 175//91 173//91
f 176//92 177//92 175//92
f 178//93 179//93 177//93
f 180//94 181//94 179//94
f 182//95 183//95 181//95
f 184//96 185//96 183//96
f 186//97 187//97 185//97
f 188//98 189//98 187//98
f 166//99 150//99 134//99
f 190//100 191//100 189//100
f 192//101 129//101 191//101
f 159//102 175//102 191//102
f 130//69 132//69 131//69
f 132//70 134//70 133//70
f 134//71 136//71 135//71
f 136//72 138//72 137//72
f 138//73 140//73 139//73
f 140//74 142//74 141//74
f 142//75 144//75 143//75
f 144//76 146//76 145//76
f 146//77 148//77 147//77
f 148//78 150//78 149//78
f 150//79 152//79 151//79
f 152//80 154//80 153//80
f 154//81 156//81 155//81
f 156//82 158//82 157//82
f 158//83 160//83 159//83
f 160//84 162//84 161//84
f 162//85 164//85 163//85
f 164//86 166//86 165//86
f 166//87 168//87 167//87
f 168//88 170//88 169//88
f 170//89 172//89 171//89
f 172//90 174//90 173//90
f 174//91 176//91 175//91
f 176//92 178//92 177//92
f 178//93 180//93 179//93
f 180//94 182//94 181//94
f 182//95 184//95 183//95
f 184//96 186//96 185//96
f 186//97 188//97 187//97
f 188//98 190//98 189//98
f 134//99 132//99 130//99
f 130//99 192//99 190//99
f 190//99 188//99 186//99
f 186//99 184//99 182//99
f 182//99 180//99 178//99
f 178//99 176//99 174//99
f 174//99 172//99 170//99
f 170//99 168//99 166//99
f 166//99 164//99 162//99
f 162//99 160//99 158//99
f 158//99 156//99 154//99
f 154//99 152//99 150//99
f 150//99 148//99 146//99
f 146//99 144//99 142//99
f 142//99 140//99 138//99
f 138//99 136//99 134//99
f 134//99 130//99 190//99
f 190//99 186//99 182//99
f 182//99 178//99 174//99
f 174//99 170//99 166//99
f 166//99 162//99 158//99
f 158//99 154//99 150//99
f 150//99 146//99 142//99
f 142//99 138//99 134//99
f 134//99 190//99 182//99
f 182//99 174//99 166//99
f 166//99 158//99 150//99
f 150//99 142//99 134//99
f 134//99 182//99 166//99
f 190//100 192//100 191//100
f 192//101 130//101 129//101
f 191//102 129//102 131//102
f 131//102 133//102 135//102
f 135//102 137//102 139//102
f 139//102 141//102 143//102
f 143//102 145//102 147//102
f 147//102 149//102 151//102
f 151//102 153//102 155//102
f 155//102 157//102 159//102
f 159//102 161//102 163//102
f 163//102 165//102 167//102
f 167//102 169//102 171//102
f 171//102 173//102 175//102
f 175//102 177//102 179//102
f 179//102 181//102 183//102
f 183//102 185//102 187//102
f 187//102 189//102 191//102
f 191//102 131//102 135//102
f 135//102 139//102 143//102
f 143//102 147//102 151//102
f 151//102 155//102 159//102
f 159//102 163//102 167//102
f 167//102 171//102 175//102
f 175//102 179//102 183//102
f 183//102 187//102 191//102
f 191//102 135//102 143//102
f 143//102 151//102 159//102
f 159//102 167//102 175//102
f 175//102 183//102 191//102
f 191//102 143//102 159//102
