# Blender 5.0.1
# www.blender.org
mtllib submarine.mtl
o main
v 7.099841 -0.066832 1.961558
v -4.475017 -0.066832 1.961557
v 7.099841 -0.457012 1.923128
v -4.475017 -0.457012 1.923128
v 7.099841 -0.832198 1.809317
v -4.475017 -0.832199 1.809316
v 7.099841 -1.177972 1.624497
v -4.475017 -1.177972 1.624496
v 7.099841 -1.481045 1.375771
v -4.475017 -1.481045 1.375771
v 7.099841 -1.729771 1.072698
v -4.475017 -1.729771 1.072698
v 7.099841 -1.914590 0.726925
v -4.475017 -1.914591 0.726924
v 7.099841 -2.028402 0.351738
v -4.475017 -2.028402 0.351738
v 7.099841 -2.066832 -0.038442
v -4.475017 -2.066832 -0.038443
v 7.099841 -2.028402 -0.428623
v -4.475017 -2.028402 -0.428623
v 7.099841 -1.914590 -0.803809
v -4.475017 -1.914591 -0.803810
v 7.099841 -1.729771 -1.149583
v -4.475017 -1.729771 -1.149583
v 7.099841 -1.481045 -1.452656
v -4.475017 -1.481045 -1.452656
v 7.099841 -1.177972 -1.701382
v -4.475017 -1.177972 -1.701382
v 7.099841 -0.832198 -1.886201
v -4.475017 -0.832199 -1.886202
v 7.099841 -0.457012 -2.000013
v -4.475017 -0.457012 -2.000013
v 7.099841 -0.066832 -2.038442
v -4.475017 -0.066832 -2.038443
v 7.099841 0.323349 -2.000013
v -4.475017 0.323349 -2.000013
v 7.099841 0.698535 -1.886201
v -4.475017 0.698535 -1.886202
v 7.099841 1.044309 -1.701382
v -4.475017 1.044309 -1.701382
v 7.099841 1.347382 -1.452656
v -4.475017 1.347382 -1.452656
v 7.099841 1.596108 -1.149583
v -4.475017 1.596107 -1.149583
v 7.099841 1.780928 -0.803809
v -4.475017 1.780927 -0.803810
v 7.099841 1.894739 -0.428623
v -4.475017 1.894739 -0.428623
v 7.099841 1.933168 -0.038442
v -4.475017 1.933168 -0.038443
v 7.099841 1.894739 0.351738
v -4.475017 1.894739 0.351738
v 7.099841 1.780928 0.726925
v -4.475017 1.780927 0.726924
v 7.099841 1.596108 1.072698
v -4.475017 1.596107 1.072698
v 7.099841 1.347382 1.375771
v -4.475017 1.347382 1.375771
v 7.099841 1.044309 1.624497
v -4.475017 1.044309 1.624496
v 7.099841 0.698535 1.809317
v -4.475017 0.698535 1.809316
v 7.099841 0.323349 1.923128
v -4.475017 0.323349 1.923128
vn -0.0000 -0.0980 0.9952
vn -0.0000 -0.2903 0.9569
vn -0.0000 -0.4714 0.8819
vn -0.0000 -0.6344 0.7730
vn -0.0000 -0.7730 0.6344
vn -0.0000 -0.8819 0.4714
vn -0.0000 -0.9569 0.2903
vn -0.0000 -0.9952 0.0980
vn -0.0000 -0.9952 -0.0980
vn -0.0000 -0.9569 -0.2903
vn -0.0000 -0.8819 -0.4714
vn -0.0000 -0.7730 -0.6344
vn -0.0000 -0.6344 -0.7730
vn -0.0000 -0.4714 -0.8819
vn -0.0000 -0.2903 -0.9569
vn -0.0000 -0.0980 -0.9952
vn -0.0000 0.0980 -0.9952
vn -0.0000 0.2903 -0.9569
vn -0.0000 0.4714 -0.8819
vn -0.0000 0.6344 -0.7730
vn -0.0000 0.7730 -0.6344
vn -0.0000 0.8819 -0.4714
vn -0.0000 0.9569 -0.2903
vn -0.0000 0.9952 -0.0980
vn -0.0000 0.9952 0.0980
vn -0.0000 0.9569 0.2903
vn -0.0000 0.8819 0.4714
vn -0.0000 0.7730 0.6344
vn -0.0000 0.6344 0.7730
vn -0.0000 0.4714 0.8819
vn -1.0000 -0.0000 -0.0000
vn -0.0000 0.2903 0.9569
vn -0.0000 0.0980 0.9952
vn 1.0000 -0.0000 -0.0000
s 0
usemtl Material
f 2//1 3//1 1//1
f 4//2 5//2 3//2
f 6//3 7//3 5//3
f 8//4 9//4 7//4
f 10//5 11//5 9//5
f 12//6 13//6 11//6
f 14//7 15//7 13//7
f 16//8 17//8 15//8
f 18//9 19//9 17//9
f 20//10 21//10 19//10
f 22//11 23//11 21//11
f 24//12 25//12 23//12
f 26//13 27//13 25//13
f 28//14 29//14 27//14
f 30//15 31//15 29//15
f 32//16 33//16 31//16
f 34//17 35//17 33//17
f 36//18 37//18 35//18
f 38//19 39//19 37//19
f 40//20 41//20 39//20
f 42//21 43//21 41//21
f 44//22 45//22 43//22
f 46//23 47//23 45//23
f 48//24 49//24 47//24
f 50//25 51//25 49//25
f 52//26 53//26 51//26
f 54//27 55//27 53//27
f 56//28 57//28 55//28
f 58//29 59//29 57//29
f 60//30 61//30 59//30
f 38//31 22//31 6//31
f 62//32 63//32 61//32
f 64//33 1//33 63//33
f 31//34 47//34 63//34
f 2//1 4//1 3//1
f 4//2 6//2 5//2
f 6//3 8//3 7//3
f 8//4 10//4 9//4
f 10//5 12//5 11//5
f 12//6 14//6 13//6
f 14//7 16//7 15//7
f 16//8 18//8 17//8
f 18//9 20//9 19//9
f 20//10 22//10 21//10
f 22//11 24//11 23//11
f 24//12 26//12 25//12
f 26//13 28//13 27//13
f 28//14 30//14 29//14
f 30//15 32//15 31//15
f 32//16 34//16 33//16
f 34//17 36//17 35//17
f 36//18 38//18 37//18
f 38//19 40//19 39//19
f 40//20 42//20 41//20
f 42//21 44//21 43//21
f 44//22 46//22 45//22
f 46//23 48//23 47//23
f 48//24 50//24 49//24
f 50//25 52//25 51//25
f 52//26 54//26 53//26
f 54//27 56//27 55//27
f 56//28 58//28 57//28
f 58//29 60//29 59//29
f 60//30 62//30 61//30
f 6//31 4//31 2//31
f 2//31 64//31 62//31
f 62//31 60//31 58//31
f 58//31 56//31 54//31
f 54//31 52//31 50//31
f 50//31 48//31 46//31
f 46//31 44//31 42//31
f 42//31 40//31 38//31
f 38//31 36//31 34//31
f 34//31 32//31 30//31
f 30//31 28//31 26//31
f 26//31 24//31 22//31
f 22//31 20//31 18//31
f 18//31 16//31 14//31
f 14//31 12//31 10//31
f 10//31 8//31 6//31
f 6//31 2//31 62//31
f 62//31 58//31 54//31
f 54//31 50//31 46//31
f 46//31 42//31 38//31
f 38//31 34//31 30//31
f 30//31 26//31 22//31
f 22//31 18//31 14//31
f 14//31 10//31 6//31
f 6//31 62//31 54//31
f 54//31 46//31 38//31
f 38//31 30//31 22//31
f 22//31 14//31 6//31
f 6//31 54//31 38//31
f 62//32 64//32 63//32
f 64//33 2//33 1//33
f 63//34 1//34 3//34
f 3//34 5//34 7//34
f 7//34 9//34 11//34
f 11//34 13//34 15//34
f 15//34 17//34 19//34
f 19//34 21//34 23//34
f 23//34 25//34 27//34
f 27//34 29//34 31//34
f 31//34 33//34 35//34
f 35//34 37//34 39//34
f 39//34 41//34 43//34
f 43//34 45//34 47//34
f 47//34 49//34 51//34
f 51//34 53//34 55//34
f 55//34 57//34 59//34
f 59//34 61//34 63//34
f 63//34 3//34 7//34
f 7//34 11//34 15//34
f 15//34 19//34 23//34
f 23//34 27//34 31//34
f 31//34 35//34 39//34
f 39//34 43//34 47//34
f 47//34 51//34 55//34
f 55//34 59//34 63//34
f 63//34 7//34 15//34
f 15//34 23//34 31//34
f 31//34 39//34 47//34
f 47//34 55//34 63//34
f 63//34 15//34 31//34
o peri
v 2.393816 0.518102 1.895890
v 2.393816 0.518102 4.233351
v 4.601067 0.518102 1.895890
v 4.601067 0.518102 4.233351
v 2.393816 -0.651766 1.895890
v 2.393816 -0.651766 4.233351
v 4.601067 -0.651766 1.895890
v 4.601067 -0.651766 4.233351
vn -0.0000 1.0000 -0.0000
vn 1.0000 -0.0000 -0.0000
vn -0.0000 -1.0000 -0.0000
vn -1.0000 -0.0000 -0.0000
vn -0.0000 -0.0000 -1.0000
vn -0.0000 -0.0000 1.0000
s 0
usemtl Material.001
f 66//35 67//35 65//35
f 68//36 71//36 67//36
f 72//37 69//37 71//37
f 70//38 65//38 69//38
f 71//39 65//39 67//39
f 68//40 70//40 72//40
f 66//35 68//35 67//35
f 68//36 72//36 71//36
f 72//37 70//37 69//37
f 70//38 66//38 65//38
f 71//39 69//39 65//39
f 68//40 66//40 70//40
o tip
v 7.692638 -0.049005 -2.134085
v 8.954359 1.139889 -0.947204
v 7.210712 1.874683 -0.947205
v 6.133067 -0.049005 -0.947196
v 7.210712 -1.972693 -0.947205
v 8.954359 -1.237898 -0.947204
v 8.174563 1.874683 0.973255
v 6.430917 1.139889 0.973255
v 6.430917 -1.237898 0.973255
v 8.174563 -1.972693 0.973255
v 9.252209 -0.049005 0.973246
v 7.692638 -0.049005 2.160135
v 7.409371 1.081702 -1.813423
v 8.434254 0.649804 -1.813423
v 8.150990 1.780522 -1.115791
v 9.175875 -0.049005 -1.115788
v 8.434254 -0.747814 -1.813423
v 6.775947 -0.049005 -1.813418
v 6.492673 1.081706 -1.115788
v 7.409371 -1.179711 -1.813423
v 6.492673 -1.179715 -1.115788
v 8.150990 -1.878532 -1.115791
v 9.350954 0.649807 0.013025
v 9.350954 -0.747817 0.013025
v 7.692638 2.212430 0.013025
v 8.717533 1.780534 0.013025
v 6.034321 0.649807 0.013025
v 6.667743 1.780534 0.013025
v 6.667743 -1.878543 0.013025
v 6.034321 -0.747817 0.013025
v 8.717533 -1.878543 0.013025
v 7.692638 -2.310439 0.013025
v 8.892603 1.081706 1.141839
v 7.234285 1.780522 1.141842
v 6.209402 -0.049005 1.141838
v 7.234285 -1.878532 1.141842
v 8.892603 -1.179715 1.141839
v 7.975904 1.081702 1.839474
v 8.609329 -0.049005 1.839468
v 6.951022 0.649804 1.839473
v 6.951022 -0.747814 1.839473
v 7.975904 -1.179711 1.839474
vn 0.1263 0.2998 -0.9456
vn 0.7724 0.2280 -0.5928
vn -0.3247 0.1819 -0.9282
vn -0.3247 -0.1819 -0.9282
vn 0.1263 -0.2998 -0.9456
vn 0.9366 0.2139 -0.2777
vn 0.0319 0.9377 -0.3458
vn -0.9263 0.2529 -0.2793
vn -0.6700 -0.6732 -0.3129
vn 0.6311 -0.7081 -0.3168
vn 0.8671 0.4858 -0.1102
vn -0.3851 0.9139 -0.1282
vn -0.9948 -0.0000 -0.1023
vn -0.3851 -0.9139 -0.1282
vn 0.8671 -0.4858 -0.1102
vn 0.4920 0.5830 0.6465
vn -0.5581 0.5325 0.6364
vn -0.7724 -0.2280 0.5928
vn 0.0488 -0.7311 0.6805
vn 0.7921 -0.1643 0.5879
vn 0.3247 -0.1819 0.9282
vn 0.5735 -0.3213 0.7536
vn 0.4920 -0.5830 0.6465
vn -0.1263 -0.2998 0.9456
vn -0.2327 -0.5522 0.8006
vn -0.5581 -0.5325 0.6364
vn -0.3969 -0.0000 0.9179
vn -0.6852 -0.0000 0.7284
vn -0.7724 0.2280 0.5928
vn -0.1263 0.2998 0.9456
vn -0.2327 0.5522 0.8006
vn 0.0488 0.7311 0.6805
vn 0.3247 0.1819 0.9282
vn 0.5735 0.3213 0.7536
vn 0.7921 0.1643 0.5879
vn 0.9263 -0.2529 0.2793
vn 0.8605 -0.4820 0.1650
vn 0.6700 -0.6732 0.3129
vn -0.0319 -0.9377 0.3458
vn -0.3812 -0.9045 0.1913
vn -0.6311 -0.7081 0.3168
vn -0.9366 -0.2139 0.2777
vn -0.9882 -0.0000 0.1533
vn -0.9366 0.2139 0.2777
vn -0.6311 0.7081 0.3168
vn -0.3812 0.9045 0.1913
vn -0.0319 0.9377 0.3458
vn 0.6700 0.6732 0.3129
vn 0.8605 0.4820 0.1650
vn 0.9263 0.2529 0.2793
vn 0.3851 -0.9139 0.1282
vn 0.3812 -0.9045 -0.1913
vn 0.0319 -0.9377 -0.3458
vn -0.8671 -0.4858 0.1102
vn -0.8605 -0.4820 -0.1650
vn -0.9263 -0.2529 -0.2793
vn -0.8671 0.4858 0.1102
vn -0.8605 0.4820 -0.1650
vn -0.6700 0.6732 -0.3129
vn 0.3851 0.9139 0.1282
vn 0.3812 0.9045 -0.1913
vn 0.6311 0.7081 -0.3168
vn 0.9948 -0.0000 0.1023
vn 0.9882 -0.0000 -0.1533
vn 0.9366 -0.2139 -0.2777
vn 0.5581 -0.5325 -0.6364
vn 0.2327 -0.5522 -0.8006
vn -0.0488 -0.7311 -0.6805
vn -0.4920 -0.5830 -0.6465
vn -0.5735 -0.3213 -0.7536
vn -0.7921 -0.1643 -0.5879
vn -0.7921 0.1643 -0.5879
vn -0.5735 0.3213 -0.7536
vn -0.4920 0.5830 -0.6465
vn 0.7724 -0.2280 -0.5928
vn 0.6852 -0.0000 -0.7284
vn 0.3969 -0.0000 -0.9179
vn -0.0488 0.7311 -0.6805
vn 0.2327 0.5522 -0.8006
vn 0.5581 0.5325 -0.6364
s 0
usemtl Material.002
f 73//41 85//41 86//41
f 74//42 88//42 86//42
f 73//43 90//43 85//43
f 73//44 92//44 90//44
f 73//45 89//45 92//45
f 74//46 95//46 88//46
f 75//47 97//47 87//47
f 76//48 99//48 91//48
f 77//49 101//49 93//49
f 78//50 103//50 94//50
f 74//51 98//51 95//51
f 75//52 100//52 97//52
f 76//53 102//53 99//53
f 77//54 104//54 101//54
f 78//55 96//55 103//55
f 79//56 110//56 105//56
f 80//57 112//57 106//57
f 81//58 113//58 107//58
f 82//59 114//59 108//59
f 83//60 111//60 109//60
f 111//61 84//61 114//61
f 111//62 114//62 109//62
f 109//63 114//63 82//63
f 114//64 84//64 113//64
f 114//65 113//65 108//65
f 108//66 113//66 81//66
f 113//67 84//67 112//67
f 113//68 112//68 107//68
f 107//69 112//69 80//69
f 112//70 84//70 110//70
f 112//71 110//71 106//71
f 106//72 110//72 79//72
f 110//73 84//73 111//73
f 110//74 111//74 105//74
f 105//75 111//75 83//75
f 96//76 83//76 109//76
f 96//77 109//77 103//77
f 103//78 109//78 82//78
f 104//79 82//79 108//79
f 104//80 108//80 101//80
f 101//81 108//81 81//81
f 102//82 81//82 107//82
f 102//83 107//83 99//83
f 99//84 107//84 80//84
f 100//85 80//85 106//85
f 100//86 106//86 97//86
f 97//87 106//87 79//87
f 98//88 79//88 105//88
f 98//89 105//89 95//89
f 95//90 105//90 83//90
f 103//91 82//91 104//91
f 103//92 104//92 94//92
f 94//93 104//93 77//93
f 101//94 81//94 102//94
f 101//95 102//95 93//95
f 93//96 102//96 76//96
f 99//97 80//97 100//97
f 99//98 100//98 91//98
f 91//99 100//99 75//99
f 97//100 79//100 98//100
f 97//101 98//101 87//101
f 87//102 98//102 74//102
f 95//103 83//103 96//103
f 95//104 96//104 88//104
f 88//105 96//105 78//105
f 89//106 78//106 94//106
f 89//107 94//107 92//107
f 92//108 94//108 77//108
f 92//109 77//109 93//109
f 92//110 93//110 90//110
f 90//111 93//111 76//111
f 90//112 76//112 91//112
f 90//113 91//113 85//113
f 85//114 91//114 75//114
f 88//115 78//115 89//115
f 88//116 89//116 86//116
f 86//117 89//117 73//117
f 85//118 75//118 87//118
f 85//119 87//119 86//119
f 86//120 87//120 74//120
