# Blender 5.0.1
# www.blender.org
mtllib water_land_missile.mtl
o body
v -1.364788 0.360000 0.932588
v 1.887344 0.360000 0.932588
v -1.364788 0.254559 0.678030
v 1.887344 0.254559 0.678030
v -1.364788 0.000000 0.572588
v 1.887344 0.000000 0.572588
v -1.364788 -0.254559 0.678030
v 1.887344 -0.254559 0.678030
v -1.364788 -0.360000 0.932588
v 1.887344 -0.360000 0.932588
v -1.364788 -0.254559 1.187147
v 1.887344 -0.254559 1.187147
v -1.364788 0.000000 1.292588
v 1.887344 0.000000 1.292588
v -1.364788 0.254559 1.187147
v 1.887344 0.254559 1.187147
v 3.380908 0.146668 0.932589
v 3.380908 0.103710 0.828879
v 3.380908 -0.000000 0.785921
v 3.380908 -0.103710 0.828879
v 3.380908 -0.146668 0.932589
v 3.380908 -0.103710 1.036298
v 3.380908 -0.000000 1.079256
v 3.380908 0.103710 1.036298
vn -0.0000 0.9239 -0.3827
vn -0.0000 0.3827 -0.9239
vn -0.0000 -0.3827 -0.9239
vn -0.0000 -0.9239 -0.3827
vn -0.0000 -0.9239 0.3827
vn -0.0000 -0.3827 0.9239
vn 0.1308 0.3794 -0.9159
vn -0.0000 0.3827 0.9239
vn -0.0000 0.9239 0.3827
vn -1.0000 -0.0000 -0.0000
vn 1.0000 -0.0000 -0.0000
vn 0.1308 -0.9159 0.3794
vn 0.1308 0.9159 0.3794
vn 0.1308 0.9159 -0.3794
vn 0.1308 -0.3794 -0.9159
vn 0.1308 -0.3794 0.9159
vn 0.1308 -0.9159 -0.3794
vn 0.1308 0.3794 0.9159
s 0
usemtl Material.001
f 2//1 3//1 1//1
f 4//2 5//2 3//2
f 6//3 7//3 5//3
f 8//4 9//4 7//4
f 10//5 11//5 9//5
f 12//6 13//6 11//6
f 6//7 18//7 19//7
f 14//8 15//8 13//8
f 16//9 1//9 15//9
f 7//10 11//10 15//10
f 23//11 21//11 19//11
f 10//12 22//12 12//12
f 2//13 24//13 17//13
f 2//14 18//14 4//14
f 6//15 20//15 8//15
f 14//16 22//16 23//16
f 10//17 20//17 21//17
f 14//18 24//18 16//18
f 2//1 4//1 3//1
f 4//2 6//2 5//2
f 6//3 8//3 7//3
f 8//4 10//4 9//4
f 10//5 12//5 11//5
f 12//6 14//6 13//6
f 6//7 4//7 18//7
f 14//8 16//8 15//8
f 16//9 2//9 1//9
f 15//10 1//10 3//10
f 3//10 5//10 7//10
f 7//10 9//10 11//10
f 11//10 13//10 15//10
f 15//10 3//10 7//10
f 19//11 18//11 17//11
f 17//11 24//11 23//11
f 23//11 22//11 21//11
f 21//11 20//11 19//11
f 19//11 17//11 23//11
f 10//12 21//12 22//12
f 2//13 16//13 24//13
f 2//14 17//14 18//14
f 6//15 19//15 20//15
f 14//16 12//16 22//16
f 10//17 8//17 20//17
f 14//18 23//18 24//18
o aileron
v -1.205028 -0.117903 1.117379
v -1.205028 -0.117903 1.837379
v -1.205028 0.117903 1.117379
v -1.205028 0.117903 1.837379
v 0.306306 -0.117903 1.117379
v -0.778660 -0.117903 1.837379
v 0.306306 0.117903 1.117379
v -0.778660 0.117903 1.837379
v -1.205028 -0.117903 0.747797
v -1.205028 -0.117903 0.027797
v -1.205028 0.117903 0.747797
v -1.205028 0.117903 0.027797
v 0.306306 -0.117903 0.747797
v -0.778660 -0.117903 0.027797
v 0.306306 0.117903 0.747797
v -0.778660 0.117903 0.027797
vn -1.0000 -0.0000 -0.0000
vn -0.0000 1.0000 -0.0000
vn 0.5529 -0.0000 0.8332
vn -0.0000 -1.0000 -0.0000
vn -0.0000 -0.0000 -1.0000
vn -0.0000 -0.0000 1.0000
vn 0.5529 -0.0000 -0.8332
s 0
usemtl Material.002
f 26//19 27//19 25//19
f 27//20 32//20 31//20
f 32//21 29//21 31//21
f 30//22 25//22 29//22
f 31//23 25//23 27//23
f 28//24 30//24 32//24
f 35//19 34//19 33//19
f 35//20 40//20 36//20
f 37//25 40//25 39//25
f 33//22 38//22 37//22
f 33//24 39//24 35//24
f 38//23 36//23 40//23
f 26//19 28//19 27//19
f 27//20 28//20 32//20
f 32//21 30//21 29//21
f 30//22 26//22 25//22
f 31//23 29//23 25//23
f 28//24 26//24 30//24
f 35//19 36//19 34//19
f 35//20 39//20 40//20
f 37//25 38//25 40//25
f 33//22 34//22 38//22
f 33//24 37//24 39//24
f 38//23 34//23 36//23
o body.001
v -1.364788 0.360000 0.932588
v 1.887344 0.360000 0.932588
v -1.364788 0.254559 0.678030
v 1.887344 0.254559 0.678030
v -1.364788 0.000000 0.572588
v 1.887344 0.000000 0.572588
v -1.364788 -0.254559 0.678030
v 1.887344 -0.254559 0.678030
v -1.364788 -0.360000 0.932588
v 1.887344 -0.360000 0.932588
v -1.364788 -0.254559 1.187147
v 1.887344 -0.254559 1.187147
v -1.364788 0.000000 1.292588
v 1.887344 0.000000 1.292588
v -1.364788 0.254559 1.187147
v 1.887344 0.254559 1.187147
v 3.380908 0.146668 0.932589
v 3.380908 0.103710 0.828879
v 3.380908 -0.000000 0.785921
v 3.380908 -0.103710 0.828879
v 3.380908 -0.146668 0.932589
v 3.380908 -0.103710 1.036298
v 3.380908 -0.000000 1.079256
v 3.380908 0.103710 1.036298
vn -0.0000 0.9239 -0.3827
vn -0.0000 0.3827 -0.9239
vn -0.0000 -0.3827 -0.9239
vn -0.0000 -0.9239 -0.3827
vn -0.0000 -0.9239 0.3827
vn -0.0000 -0.3827 0.9239
vn 0.1308 0.3794 -0.9159
vn -0.0000 0.3827 0.9239
vn -0.0000 0.9239 0.3827
vn -1.0000 -0.0000 -0.0000
vn 1.0000 -0.0000 -0.0000
vn 0.1308 -0.9159 0.3794
vn 0.1308 0.9159 0.3794
vn 0.1308 0.9159 -0.3794
vn 0.1308 -0.3794 -0.9159
vn 0.1308 -0.3794 0.9159
vn 0.1308 -0.9159 -0.3794
vn 0.1308 0.3794 0.9159
s 0
usemtl Material.003
f 42//26 43//26 41//26
f 44//27 45//27 43//27
f 46//28 47//28 45//28
f 48//29 49//29 47//29
f 50//30 51//30 49//30
f 52//31 53//31 51//31
f 46//32 58//32 59//32
f 54//33 55//33 53//33
f 56//34 41//34 55//34
f 47//35 51//35 55//35
f 63//36 61//36 59//36
f 50//37 62//37 52//37
f 42//38 64//38 57//38
f 42//39 58//39 44//39
f 46//40 60//40 48//40
f 54//41 62//41 63//41
f 50//42 60//42 61//42
f 54//43 64//43 56//43
f 42//26 44//26 43//26
f 44//27 46//27 45//27
f 46//28 48//28 47//28
f 48//29 50//29 49//29
f 50//30 52//30 51//30
f 52//31 54//31 53//31
f 46//32 44//32 58//32
f 54//33 56//33 55//33
f 56//34 42//34 41//34
f 55//35 41//35 43//35
f 43//35 45//35 47//35
f 47//35 49//35 51//35
f 51//35 53//35 55//35
f 55//35 43//35 47//35
f 59//36 58//36 57//36
f 57//36 64//36 63//36
f 63//36 62//36 61//36
f 61//36 60//36 59//36
f 59//36 57//36 63//36
f 50//37 61//37 62//37
f 42//38 56//38 64//38
f 42//39 57//39 58//39
f 46//40 59//40 60//40
f 54//41 52//41 62//41
f 50//42 48//42 60//42
f 54//43 63//43 64//43
o aileron.001
v -1.205028 -0.117903 1.117379
v -1.205028 -0.117903 1.837379
v -1.205028 0.117903 1.117379
v -1.205028 0.117903 1.837379
v 0.306306 -0.117903 1.117379
v -0.778660 -0.117903 1.837379
v 0.306306 0.117903 1.117379
v -0.778660 0.117903 1.837379
v -1.205028 -0.117903 0.747797
v -1.205028 -0.117903 0.027797
v -1.205028 0.117903 0.747797
v -1.205028 0.117903 0.027797
v 0.306306 -0.117903 0.747797
v -0.778660 -0.117903 0.027797
v 0.306306 0.117903 0.747797
v -0.778660 0.117903 0.027797
vn -1.0000 -0.0000 -0.0000
vn -0.0000 1.0000 -0.0000
vn 0.5529 -0.0000 0.8332
vn -0.0000 -1.0000 -0.0000
vn -0.0000 -0.0000 -1.0000
vn -0.0000 -0.0000 1.0000
vn 0.5529 -0.0000 -0.8332
s 0
usemtl Material.004
f 66//44 67//44 65//44
f 67//45 72//45 71//45
f 72//46 69//46 71//46
f 70//47 65//47 69//47
f 71//48 65//48 67//48
f 68//49 70//49 72//49
f 75//44 74//44 73//44
f 75//45 80//45 76//45
f 77//50 80//50 79//50
f 73//47 78//47 77//47
f 73//49 79//49 75//49
f 78//48 76//48 80//48
f 66//44 68//44 67//44
f 67//45 68//45 72//45
f 72//46 70//46 69//46
f 70//47 66//47 65//47
f 71//48 69//48 65//48
f 68//49 66//49 70//49
f 75//44 76//44 74//44
f 75//45 79//45 80//45
f 77//50 78//50 80//50
f 73//47 74//47 78//47
f 73//49 77//49 79//49
f 78//48 74//48 76//48
o aileron.002
v 0.017540 0.769580 0.759233
v -0.702460 0.769580 0.759233
v 0.017540 0.769580 0.995040
v -0.702460 0.769580 0.995040
v 0.017540 -0.741754 0.759233
v -0.702460 0.343213 0.759233
v 0.017540 -0.741754 0.995040
v -0.702460 0.343213 0.995040
v 0.017540 -0.741754 0.759233
v -0.702460 -0.741754 0.759233
v 0.017540 -0.741754 0.995040
v -0.702460 -0.741754 0.995040
v 0.017540 0.769580 0.759233
v -0.702460 -0.315386 0.759233
v 0.017540 0.769580 0.995040
v -0.702460 -0.315386 0.995040
vn -0.0000 1.0000 -0.0000
vn -0.0000 -0.0000 1.0000
vn -0.8332 -0.5529 -0.0000
vn -0.0000 -0.0000 -1.0000
vn 1.0000 -0.0000 -0.0000
vn -1.0000 -0.0000 -0.0000
vn -0.0000 -1.0000 -0.0000
vn -0.8332 0.5529 -0.0000
s 0
usemtl Material.005
f 82//51 83//51 81//51
f 83//52 88//52 87//52
f 88//53 85//53 87//53
f 86//54 81//54 85//54
f 87//55 81//55 83//55
f 84//56 86//56 88//56
f 91//57 90//57 89//57
f 91//52 96//52 92//52
f 93//58 96//58 95//58
f 89//54 94//54 93//54
f 89//55 95//55 91//55
f 94//56 92//56 96//56
f 82//51 84//51 83//51
f 83//52 84//52 88//52
f 88//53 86//53 85//53
f 86//54 82//54 81//54
f 87//55 85//55 81//55
f 84//56 82//56 86//56
f 91//57 92//57 90//57
f 91//52 95//52 96//52
f 93//58 94//58 96//58
f 89//54 90//54 94//54
f 89//55 93//55 95//55
f 94//56 90//56 92//56
